/* XPM */
static char * check_16_xpm[] = {
"16 16 41 1",
" 	c None",
".	c #14C18B",
"+	c #16C18B",
"@	c #6BCCA3",
"#	c #49C696",
"$	c #15C18B",
"%	c #5FC99E",
"&	c #E9F5EF",
"*	c #D5EDE1",
"=	c #2CC28E",
"-	c #41C594",
";	c #DBEFE5",
">	c #FAFDFB",
",	c #96D7B9",
"'	c #19C18B",
")	c #27C28E",
"!	c #61CA9F",
"~	c #1BC18C",
"{	c #2DC38F",
"]	c #C6E7D7",
"^	c #FCFEFD",
"/	c #B3E0CA",
"(	c #23C28D",
"_	c #19C18C",
":	c #A1DABF",
"<	c #F2F9F6",
"[	c #94D6B7",
"}	c #ADDEC6",
"|	c #FCFDFD",
"1	c #CCE9DA",
"2	c #31C38F",
"3	c #73CDA6",
"4	c #ECF6F1",
"5	c #F9FCFA",
"6	c #FAFDFC",
"7	c #DFF1E8",
"8	c #6ECCA5",
"9	c #ECF7F1",
"0	c #66CAA0",
"a	c #66CAA1",
"b	c #79CFA9",
"     ......     ",
"   ..........   ",
"  ............  ",
" .............. ",
" ........+@#$.. ",
"........$%&*=...",
"........-;>,'...",
"....)!~{]^/(....",
"..._:<[}|12.....",
"...$34567#......",
"....+8&90$......",
" ....$ab+...... ",
" .............. ",
"  ............  ",
"   ..........   ",
"     ......     "};
