/* XPM */
static char * warning_16_xpm[] = {
"16 16 15 1",
" 	c None",
".	c #FFD54F",
"+	c #F5CE54",
"@	c #F4CD54",
"#	c #FED44F",
"$	c #B8A368",
"%	c #B9A467",
"&	c #FED54F",
"*	c #C3AA65",
"=	c #C5AC65",
"-	c #D0B461",
";	c #D6B860",
">	c #C5AC64",
",	c #C4AB64",
"'	c #FCD350",
"                ",
"                ",
"       ..       ",
"      ....      ",
"      ....      ",
"     ..+@..     ",
"    ..#$%#..    ",
"    ..#$%&..    ",
"   ....*=....   ",
"   ....-;....   ",
"  .....@@.....  ",
" ......>,...... ",
" ......''...... ",
" .............. ",
"                ",
"                "};
